<?xml version="1.0" standalone="no"?>
<!DOCTYPE svg PUBLIC "-//W3C//DTD SVG 20010904//EN"
 "http://www.w3.org/TR/2001/REC-SVG-20010904/DTD/svg10.dtd">
<svg version="1.0" xmlns="http://www.w3.org/2000/svg"
 width="700.000000pt" height="700.000000pt" viewBox="0 0 700.000000 700.000000"
 preserveAspectRatio="xMidYMid meet">
<metadata>
Created by potrace 1.11, written by Peter Selinger 2001-2013
</metadata>
<g transform="translate(0.000000,700.000000) scale(0.100000,-0.100000)"
fill="#000000" stroke="none">
<path d="M4740 6982 c-87 -11 -347 -127 -454 -201 -185 -129 -307 -422 -235
-566 41 -82 35 -79 479 -236 124 -44 255 -92 293 -106 l67 -25 0 -119 c0 -65
-3 -119 -7 -119 -8 0 -181 54 -388 120 -66 21 -185 58 -265 83 -80 25 -289 92
-465 147 -176 56 -347 110 -380 120 -33 10 -112 35 -175 55 -63 20 -194 62
-290 92 -96 31 -206 66 -245 78 l-70 23 -100 -53 c-55 -29 -291 -158 -525
-285 -234 -128 -454 -249 -490 -268 -218 -118 -774 -421 -995 -542 -93 -51
-188 -103 -210 -115 -22 -11 -88 -47 -147 -80 l-108 -58 0 -296 1 -296 214
-95 c118 -52 216 -99 218 -105 2 -5 3 -518 2 -1138 0 -620 2 -1131 5 -1136 3
-4 254 -132 559 -285 l554 -277 26 23 c14 13 27 26 29 30 2 3 14 4 28 2 13 -2
24 0 24 6 0 5 5 10 11 10 5 0 8 -4 5 -8 -6 -10 40 -10 50 1 11 11 26 9 19 -3
-3 -5 -1 -10 5 -10 7 0 9 8 5 21 -4 12 -3 19 2 16 5 -3 15 -2 22 2 10 6 6 15
-15 35 -16 14 -23 26 -17 26 7 0 15 -5 18 -10 5 -8 12 -7 23 2 14 11 15 10 9
-6 -5 -11 -1 -29 9 -43 15 -24 15 -25 -4 -19 -23 8 -39 -9 -21 -20 8 -4 9 -3
5 4 -4 7 -3 12 3 12 5 0 12 -6 15 -12 5 -10 7 -10 12 0 3 6 10 12 15 12 6 0 7
-5 3 -12 -4 -7 -3 -8 5 -4 6 4 9 11 6 16 -3 4 2 11 11 14 12 4 14 1 9 -14 -4
-12 -2 -20 5 -20 6 0 8 5 5 10 -3 6 1 10 9 10 9 0 16 -4 16 -10 0 -5 5 -10 11
-10 8 0 8 4 -1 14 -9 12 -8 15 9 13 15 -1 20 -6 16 -16 -5 -13 -3 -13 12 1 36
30 46 32 38 7 -5 -19 -4 -21 4 -9 10 13 11 13 11 0 0 -13 1 -13 10 0 9 14 14
7 11 -13 -1 -5 3 -6 9 -2 8 5 7 11 -1 21 -8 9 -8 14 -1 14 6 0 16 -8 21 -17 6
-10 11 -12 11 -5 0 6 5 12 11 12 5 0 7 -5 3 -12 -4 -7 -3 -8 5 -4 6 4 9 11 6
16 -3 4 2 11 11 14 12 4 14 1 9 -14 -4 -12 -2 -20 5 -20 6 0 8 4 5 10 -3 5 1
10 9 10 9 0 16 -4 16 -9 0 -6 9 -9 20 -8 11 1 20 5 20 9 0 4 5 8 11 8 5 0 7
-6 3 -12 -4 -7 -4 -10 1 -6 4 4 15 3 25 -2 12 -6 17 -5 17 6 0 8 -6 13 -12 10
-7 -2 -17 0 -23 6 -7 7 -16 6 -30 -1 -13 -7 -23 -7 -27 -2 -3 5 4 13 15 16 17
5 19 9 9 21 -7 8 -18 13 -26 10 -15 -6 -18 10 -3 19 5 3 23 -8 41 -24 17 -16
37 -27 45 -24 8 3 18 -4 24 -18 8 -20 9 -20 8 -4 -3 23 9 45 24 45 7 0 7 -4 1
-12 -10 -13 -14 -53 -5 -43 3 2 12 0 22 -5 12 -6 17 -5 17 6 0 8 -7 13 -15 12
-8 -2 -17 2 -19 7 -7 22 38 14 47 -8 9 -20 10 -20 8 -2 -3 23 9 45 24 45 7 0
7 -4 1 -12 -14 -18 -12 -45 3 -45 7 0 11 4 9 8 -3 3 3 13 12 20 14 12 15 11 8
-11 -7 -25 -7 -25 10 -5 14 17 16 17 11 2 -5 -17 -5 -17 19 0 21 16 30 39 26
65 0 5 3 8 7 8 17 0 21 -12 12 -36 -12 -31 -3 -53 20 -51 14 1 16 4 8 14 -7 9
-7 13 0 13 6 0 16 -8 21 -17 6 -10 11 -12 11 -5 0 6 5 12 11 12 5 0 8 -4 4 -9
-3 -6 5 -8 17 -6 l23 4 -1 -290 -1 -290 779 -389 779 -389 23 25 c14 17 33 27
53 27 21 1 29 6 25 15 -2 8 -8 10 -11 5 -3 -4 -13 -9 -21 -11 -8 -2 10 21 40
50 31 29 65 66 77 81 12 15 24 23 27 18 4 -6 -2 -15 -13 -20 -14 -8 -18 -18
-15 -38 4 -21 2 -24 -8 -15 -11 8 -17 6 -26 -9 -7 -11 -17 -17 -23 -13 -8 4
-8 1 -1 -13 7 -12 7 -25 1 -36 -8 -13 -7 -17 3 -15 20 4 28 20 18 38 -6 11 -5
21 2 28 17 17 33 15 18 -3 -9 -11 -10 -19 -1 -28 8 -10 7 -17 -2 -27 -10 -12
-9 -12 6 0 12 9 15 16 7 24 -5 5 -10 15 -10 20 1 6 10 0 21 -13 16 -19 17 -26
7 -33 -9 -6 -7 -8 7 -6 11 2 23 7 27 12 10 15 -3 38 -19 32 -9 -4 -13 -1 -10
6 2 7 10 12 16 10 6 -1 11 2 11 8 0 13 -17 13 -25 0 -3 -5 -11 -10 -17 -10 -7
0 -7 4 1 13 6 8 9 23 7 34 -3 16 1 20 23 20 26 0 28 -3 25 -44 -1 -24 2 -46 8
-49 5 -3 4 -13 -4 -22 -12 -15 -11 -16 5 -3 12 10 15 17 7 25 -5 5 -10 15 -10
20 1 6 10 0 21 -13 16 -19 17 -26 7 -33 -9 -6 -7 -8 7 -6 11 2 23 7 27 12 10
14 -3 38 -18 32 -8 -3 -14 -2 -14 3 0 13 39 58 40 45 0 -5 -6 -17 -12 -24 -11
-13 -11 -13 2 -2 17 15 50 16 50 1 0 -6 -7 -9 -15 -6 -19 8 -30 -10 -16 -27 7
-9 7 -16 -2 -26 -10 -12 -9 -12 6 0 12 9 15 16 7 24 -5 5 -10 15 -10 20 1 6
10 0 21 -13 16 -19 17 -26 7 -33 -9 -6 -7 -8 7 -6 11 2 23 7 27 12 9 14 -3 38
-17 33 -7 -3 -12 5 -12 22 0 19 5 27 19 27 20 0 23 -7 8 -24 -7 -9 -7 -9 2 -2
19 15 32 12 18 -5 -9 -11 -10 -19 -1 -28 8 -10 7 -17 -2 -27 -10 -12 -9 -12 6
0 12 9 15 16 7 24 -5 5 -10 15 -10 20 1 6 10 0 21 -13 15 -19 17 -26 7 -32 -8
-5 -5 -8 10 -6 14 1 18 5 12 11 -16 16 -12 30 5 16 10 -9 15 -9 15 -1 0 10
-12 15 -31 13 -3 -1 -6 12 -6 28 0 24 3 27 14 19 9 -8 13 -8 13 0 0 6 -4 11
-10 11 -5 0 -10 5 -10 11 0 5 5 7 10 4 6 -3 10 -2 10 3 0 6 -7 12 -15 16 -8 3
-15 11 -15 17 0 9 4 9 14 0 10 -8 16 -9 21 -1 3 5 11 10 17 10 7 0 7 -4 1 -13
-5 -6 -8 -25 -7 -40 2 -18 -3 -30 -12 -34 -12 -5 -13 -7 -3 -14 7 -4 19 -3 26
3 9 7 13 7 13 0 0 -6 -4 -13 -9 -16 -14 -9 -19 -43 -6 -43 7 0 10 9 8 21 -4
18 -3 19 7 6 10 -13 11 -13 6 2 -3 10 -2 18 3 18 15 0 20 -13 11 -30 -6 -12
-5 -17 4 -17 12 0 14 6 18 47 3 25 3 25 36 -5 15 -14 21 -25 15 -25 -7 0 -15
5 -19 11 -7 12 -24 -6 -24 -26 0 -5 5 -3 10 5 7 11 12 12 18 3 5 -8 12 -8 26
3 11 8 14 14 8 14 -20 0 -14 16 7 17 20 2 24 -26 6 -39 -6 -5 -6 -8 2 -8 6 0
15 5 19 11 4 8 9 7 15 -2 4 -8 6 2 5 23 -3 30 3 42 35 73 22 21 39 33 39 28 0
-5 -5 -14 -11 -20 -8 -8 -8 -13 0 -17 6 -4 11 -12 11 -18 0 -6 -6 -6 -16 2
-12 11 -18 10 -32 -4 -16 -16 -16 -18 1 -27 9 -6 17 -15 17 -21 0 -7 -5 -6
-15 2 -19 16 -20 3 -1 -16 12 -12 16 -10 23 13 7 21 16 27 41 28 20 1 31 -3
29 -9 -2 -6 -11 -10 -21 -8 -9 2 -16 -1 -16 -6 0 -17 35 -9 52 12 9 12 17 16
18 10 0 -5 -5 -15 -12 -22 -7 -7 -9 -12 -4 -12 16 0 35 27 25 37 -17 17 0 40
26 37 18 -2 29 5 42 26 9 16 21 26 26 23 6 -3 7 -1 3 5 -11 19 -20 14 -35 -19
-10 -23 -16 -27 -22 -18 -5 9 -3 17 6 22 17 9 20 27 4 27 -5 0 -7 -4 -4 -10
11 -17 -7 -11 -21 7 -14 19 -20 62 -6 49 4 -4 7 -13 7 -19 0 -7 20 -12 50 -13
29 -1 42 1 31 5 -14 5 -16 10 -8 15 7 4 17 4 23 0 7 -4 7 1 -1 15 -13 25 -36
23 -34 -3 1 -9 -3 -15 -10 -13 -6 3 -9 11 -7 18 8 34 8 85 -1 97 -12 14 3 16
20 2 9 -7 9 -7 2 2 -16 19 -12 29 8 17 22 -14 27 -50 6 -42 -8 3 -14 0 -14 -7
0 -6 5 -8 10 -5 6 3 10 1 10 -4 0 -6 -4 -11 -10 -11 -5 0 -10 -5 -10 -11 0 -5
4 -7 10 -4 5 3 15 -3 22 -15 7 -11 17 -20 22 -20 4 0 3 7 -4 15 -7 9 -9 19 -5
23 4 4 10 1 12 -6 3 -6 9 -10 14 -6 5 3 9 2 8 -3 -7 -38 -10 -38 288 -38 l288
1 3 176 2 176 93 -1 c237 -3 435 54 622 178 97 64 225 187 277 266 34 52 188
348 188 362 0 4 -99 7 -220 7 -121 0 -220 2 -220 3 0 2 25 42 56 88 73 108
118 208 150 334 15 58 27 159 28 247 1 59 5 111 9 115 4 3 7 11 7 17 0 6 -5 4
-10 -4 -7 -11 -10 -12 -10 -2 0 8 9 16 20 19 11 3 20 8 20 12 0 4 14 22 31 39
20 20 25 30 14 26 -11 -5 -16 -3 -12 2 8 13 -10 41 -20 31 -4 -5 -1 -12 7 -17
11 -7 12 -10 2 -10 -9 0 -11 -7 -6 -22 6 -20 5 -21 -9 -10 -9 8 -14 26 -12 50
2 32 5 37 26 37 17 0 23 -5 21 -17 -1 -9 2 -19 8 -23 6 -4 7 1 3 12 -5 15 -3
16 8 5 19 -18 28 -15 24 8 -2 11 1 20 8 20 8 0 8 3 -1 12 -16 16 -15 29 2 22
17 -6 41 32 27 41 -5 3 -13 0 -17 -6 -4 -8 -9 -7 -16 2 -8 11 -9 11 -5 -2 4
-12 -2 -16 -24 -16 -23 0 -26 3 -18 14 6 7 15 11 19 8 4 -3 11 2 14 11 3 9 2
12 -5 8 -6 -3 -23 4 -37 17 -15 13 -21 17 -14 9 17 -19 15 -26 -7 -27 -14 -1
-17 4 -15 24 1 13 0 22 -3 19 -4 -3 -12 -1 -19 5 -8 7 -14 7 -19 -1 -3 -5 -11
-10 -17 -10 -7 0 -6 5 1 14 8 10 9 16 1 21 -6 4 -9 1 -8 -6 2 -6 -2 -13 -9
-16 -8 -3 -11 3 -8 16 3 19 1 20 -17 10 -18 -10 -20 -9 -15 5 3 8 1 18 -5 22
-7 4 -8 3 -4 -4 4 -7 1 -12 -8 -12 -8 0 -16 3 -19 8 -2 4 -2 2 -1 -5 3 -13
-28 -26 -66 -27 -27 -1 -40 -21 -13 -21 9 0 18 -5 20 -12 3 -8 -5 -10 -24 -7
-21 3 -24 2 -13 -5 17 -12 21 -57 8 -84 -11 -21 -34 -22 -46 -1 -6 11 -11 13
-16 5 -4 -6 -2 -11 4 -11 6 0 9 -4 5 -9 -3 -6 -14 -9 -25 -8 -18 1 -16 5 12
34 30 31 48 35 48 10 0 -7 -4 -6 -11 3 -9 12 -10 12 -5 -3 3 -10 6 -21 6 -23
0 -2 4 -4 8 -4 4 0 8 18 8 40 0 23 -2 36 -6 30 -3 -5 -6 12 -6 39 l-1 48 39
-1 c43 -2 52 1 61 28 7 17 5 17 -27 -2 -30 -18 -35 -18 -40 -5 -8 21 -7 25 4
18 5 -3 17 -2 26 3 11 6 13 11 5 16 -6 4 -11 2 -11 -3 0 -6 -5 -11 -11 -11 -5
0 -7 4 -4 10 3 6 2 10 -2 10 -5 0 -14 -9 -21 -20 -8 -13 -8 -20 -1 -20 5 0 7
-5 4 -10 -4 -6 -10 -8 -15 -5 -5 3 -10 321 -10 744 l0 739 214 163 215 164 0
297 1 297 -22 6 c-33 10 -398 125 -428 135 -14 4 -99 31 -190 60 -91 28 -221
69 -290 91 -114 37 -180 57 -385 121 -38 13 -74 25 -78 29 -5 4 -9 44 -9 90 0
144 -13 132 97 94 64 -22 109 -31 135 -29 59 6 537 245 573 286 68 79 73 174
15 277 -53 95 -143 221 -231 326 -111 132 -155 171 -282 253 -58 37 -255 125
-360 160 -178 61 -288 88 -480 118 -45 7 -227 11 -265 6z m1916 -4453 c3 -6
-1 -18 -11 -27 -16 -16 -17 -15 -10 8 5 19 4 21 -4 10 -6 -8 -11 -11 -11 -7 0
4 -9 3 -21 -4 -16 -8 -24 -8 -33 2 -8 9 -7 11 5 7 8 -3 26 0 40 8 30 16 36 17
45 3z m29 -9 c-4 -6 6 -16 22 -23 15 -6 29 -21 31 -32 2 -20 2 -20 -15 1 l-18
21 -18 -21 c-16 -18 -18 -18 -13 -3 3 11 2 15 -4 12 -6 -3 -10 0 -10 7 0 9 -3
9 -10 -2 -7 -12 -13 -13 -28 -4 -14 9 -22 8 -37 -2 -10 -8 -14 -14 -8 -14 7 0
15 5 18 10 4 6 11 8 16 5 11 -7 12 -26 2 -24 -20 3 -34 -2 -28 -11 3 -5 2 -10
-4 -10 -5 0 -12 6 -14 13 -4 9 -6 9 -6 0 -2 -21 22 -26 36 -8 7 11 13 16 13
12 0 -4 11 0 24 8 23 15 25 15 31 -4 3 -12 11 -21 16 -21 6 0 7 5 4 10 -3 6
-2 10 4 10 21 0 21 -21 -1 -29 -18 -7 -25 -4 -33 10 -10 17 -11 17 -35 -2 -24
-20 -24 -20 -2 -9 13 6 26 9 30 6 9 -10 -2 -16 -36 -19 -18 -2 -35 -7 -39 -10
-14 -15 -20 -5 -19 37 1 24 3 43 5 40 2 -2 15 6 29 17 22 17 27 18 34 5 7 -13
12 -13 28 -3 11 6 20 17 20 24 0 7 5 13 11 13 5 0 7 -5 4 -10z m85 -41 c0 -19
-26 -8 -27 12 -2 17 1 18 13 9 8 -7 14 -16 14 -21z m-44 -55 c-4 -18 -1 -21
12 -17 15 6 15 5 3 -10 -20 -25 -29 -21 -27 14 1 16 -1 32 -6 35 -4 3 -8 10
-8 16 0 7 6 6 15 -2 8 -7 13 -23 11 -36z m92 19 c-13 -16 -32 -17 -22 -1 4 7
3 8 -5 4 -6 -4 -8 -12 -5 -18 4 -6 -2 -8 -17 -4 -13 3 -18 3 -11 0 13 -6 16
-30 5 -37 -5 -2 -2 -2 5 -1 13 4 16 -8 5 -20 -4 -4 -8 -19 -9 -34 -2 -37 -3
-39 -14 -22 -5 8 -5 19 0 25 5 6 5 17 1 24 -6 9 -11 10 -15 2 -4 -6 -2 -11 5
-11 9 0 8 -4 -1 -15 -10 -12 -6 -20 20 -43 25 -24 29 -31 17 -40 -8 -7 -17 -9
-20 -5 -4 3 -7 1 -7 -5 0 -7 -4 -12 -8 -12 -5 0 -9 15 -9 33 -1 43 -8 80 -17
95 -4 7 -2 12 6 12 7 0 19 9 26 20 10 17 10 21 -3 26 -10 4 -12 11 -6 23 7 12
22 17 50 17 32 0 38 -2 29 -13z m76 -18 c-4 -8 -11 -15 -16 -15 -6 0 -5 6 2
15 7 8 14 15 16 15 2 0 1 -7 -2 -15z m-78 -16 c10 -17 -13 -36 -27 -22 -12 12
-4 33 11 33 5 0 12 -5 16 -11z m35 -1 c1 -7 3 -23 4 -35 1 -13 -1 -23 -5 -23
-16 0 -29 27 -23 48 6 24 22 30 24 10z m-4361 -277 c8 -16 6 -23 -12 -35 -21
-15 -38 -13 -38 4 0 5 6 7 14 4 19 -7 31 15 16 29 -9 9 -14 8 -24 -5 -7 -10
-15 -16 -17 -13 -3 2 -4 -15 -4 -37 0 -26 -5 -43 -14 -46 -9 -3 -11 0 -6 9 6
11 5 12 -6 2 -7 -7 -18 -13 -23 -13 -6 1 -1 9 10 18 12 11 21 29 20 43 -2 46
63 78 84 40z m-20 -11 c0 -5 -4 -10 -10 -10 -5 0 -10 5 -10 10 0 6 5 10 10 10
6 0 10 -4 10 -10z m45 -7 c-4 -10 -8 -31 -10 -48 -1 -23 -7 -31 -24 -33 -15
-2 -21 0 -16 7 3 6 10 9 14 7 4 -3 8 5 8 16 2 19 1 19 -11 3 -8 -11 -18 -15
-25 -10 -10 6 -11 3 -2 -13 14 -27 14 -28 -9 -28 -21 0 -27 11 -11 20 4 3 7
17 5 31 -2 22 0 24 12 14 12 -10 19 -7 39 11 13 13 22 27 19 31 -3 5 0 9 6 9
8 0 9 -7 5 -17z m59 -25 c-3 -4 -10 -5 -17 -2 -7 2 -18 -5 -25 -16 -7 -11 -9
-20 -4 -20 4 0 8 -8 9 -18 1 -11 -5 -18 -18 -18 -20 0 -25 11 -11 20 5 3 8 15
7 28 -1 13 2 30 6 40 7 13 13 14 33 5 13 -7 22 -15 20 -19z m-178 -2 c-1 -7
-10 -21 -19 -30 -19 -19 -13 -40 8 -32 8 3 19 -1 25 -9 6 -8 18 -11 26 -8 8 3
14 -1 14 -11 0 -9 -5 -16 -11 -16 -5 0 -8 4 -5 9 3 4 -6 7 -20 5 -20 -2 -24 1
-19 14 3 9 -6 4 -20 -13 -19 -21 -25 -24 -20 -10 3 11 3 16 -1 12 -4 -4 -14 2
-21 13 -12 17 -12 22 1 35 8 8 20 15 26 15 6 0 9 4 5 9 -4 7 17 28 32 31 1 0
0 -6 -1 -14z m224 -35 c-4 -8 -4 -25 1 -38 5 -13 5 -23 1 -23 -4 0 -8 -9 -9
-20 -1 -12 3 -18 9 -14 7 4 7 0 0 -12 -5 -11 -7 -24 -5 -31 2 -6 -1 -14 -7
-18 -16 -10 -25 26 -9 37 11 8 10 9 -3 4 -18 -5 -35 25 -29 53 2 9 -3 12 -14
7 -11 -4 -15 -2 -12 6 2 7 10 12 16 11 6 -2 11 2 11 7 0 6 -7 10 -17 10 -9 0
-13 3 -9 8 4 4 13 7 19 7 5 0 12 7 14 15 3 9 1 11 -4 5 -12 -15 -36 -18 -31
-4 2 7 12 13 22 15 10 1 20 5 23 8 3 3 13 0 23 -7 13 -7 16 -16 10 -26z m-124
-42 c10 -17 -13 -36 -27 -22 -12 12 -4 33 11 33 5 0 12 -5 16 -11z m-158 -25
c9 -19 9 -24 1 -18 -8 4 -9 3 -5 -4 4 -7 1 -12 -8 -12 -19 0 -20 11 -3 30 9
11 8 11 -7 0 -18 -14 -19 -13 -13 5 l7 20 -16 -20 c-8 -11 -20 -19 -25 -17 -6
1 -8 -2 -5 -7 4 -5 0 -11 -6 -14 -7 -2 -1 -8 15 -12 15 -4 27 -11 27 -16 0
-13 -13 -11 -38 7 -12 8 -23 13 -23 10 -1 -3 -2 -10 -3 -16 0 -5 -10 -16 -21
-25 -19 -14 -19 -16 -2 -29 16 -13 16 -15 -3 -37 -10 -13 -19 -19 -20 -12 0 6
4 15 10 18 6 4 5 13 -2 25 -7 10 -16 16 -21 13 -5 -3 -2 -10 7 -15 13 -7 14
-13 6 -23 -7 -8 -9 -18 -6 -23 3 -6 -5 -17 -19 -26 -34 -22 -45 -19 -16 4 13
11 20 20 17 20 -4 0 -2 8 3 18 7 13 7 22 -1 30 -8 8 -5 17 13 31 13 11 27 20
32 21 4 0 7 5 7 10 0 13 43 56 52 53 4 -2 10 6 13 17 9 28 40 25 53 -6z m192
11 c0 -8 -4 -15 -10 -15 -5 0 -10 7 -10 15 0 8 5 15 10 15 6 0 10 -7 10 -15z
m-55 -19 c28 -2 59 1 70 7 11 5 17 6 13 2 -4 -4 0 -21 9 -38 14 -28 14 -31 -3
-44 -15 -11 -19 -11 -27 2 -4 9 -12 13 -18 10 -5 -4 -9 -1 -9 4 0 14 23 14 37
0 8 -8 13 -8 18 0 3 6 1 10 -6 9 -6 -2 -14 3 -17 11 -3 8 0 11 7 7 7 -5 9 -1
4 10 -5 15 -7 15 -15 0 -5 -9 -14 -16 -19 -16 -6 0 -7 4 -4 10 4 6 -1 7 -11 3
-10 -4 -15 -2 -11 3 3 5 -3 10 -13 10 -10 0 -16 -5 -13 -10 4 -5 -1 -7 -11 -3
-10 4 -15 3 -11 -3 13 -20 -13 -9 -29 13 -13 19 -15 19 -9 2 6 -17 4 -18 -8
-8 -12 10 -15 8 -16 -7 -2 -23 22 -46 32 -30 8 13 35 13 35 -1 0 -5 -4 -8 -9
-4 -6 3 -14 -2 -19 -11 -9 -16 -12 -14 -36 10 -15 14 -32 24 -37 21 -18 -12
-9 9 14 31 13 13 30 20 42 17 11 -3 43 -6 70 -7z m-124 -51 c4 3 11 -1 16 -8
4 -8 18 -19 30 -26 18 -9 24 -8 31 5 5 9 13 15 18 15 5 -1 9 5 9 12 0 6 6 16
13 20 14 10 37 -3 37 -20 0 -7 4 -13 9 -12 5 0 13 -6 18 -15 7 -13 13 -14 29
-6 21 12 43 5 34 -11 -9 -14 -27 -11 -19 4 4 6 -2 4 -13 -5 -21 -19 -38 -24
-28 -9 3 5 1 12 -4 15 -22 14 -21 -16 1 -34 13 -11 18 -19 11 -20 -6 0 -15 5
-19 11 -4 8 -9 8 -17 0 -17 -17 -31 -13 -17 4 7 9 10 18 7 22 -4 3 -2 12 3 18
14 17 -16 28 -38 15 -10 -5 -13 -10 -8 -10 4 0 1 -11 -8 -24 -10 -15 -12 -27
-6 -31 6 -3 10 -12 10 -18 -1 -7 -10 -1 -21 12 -18 22 -18 26 -5 33 9 5 16 14
16 21 0 8 -3 7 -9 -2 -5 -8 -14 -10 -21 -6 -9 6 -11 4 -5 -5 5 -8 3 -11 -6 -8
-8 3 -13 12 -11 19 3 11 1 12 -9 2 -20 -19 -33 -15 -18 5 12 15 12 16 -1 5
-10 -7 -21 -8 -30 -3 -8 5 -18 6 -24 3 -5 -4 -7 1 -3 10 10 25 -2 47 -21 39
-14 -5 -15 -3 -4 10 12 15 15 14 39 -8 14 -13 29 -21 34 -19z m67 13 c-2 -5
-8 -9 -13 -9 -5 0 -11 4 -13 9 -1 5 4 9 13 9 9 0 14 -4 13 -9z m-123 -59 c-4
-5 -11 -9 -16 -9 -6 0 -8 4 -4 9 9 16 -15 24 -30 11 -10 -8 -15 -9 -15 -2 0 6
5 14 10 17 6 4 7 11 3 18 -3 6 8 1 25 -12 18 -12 30 -27 27 -32z m193 -1 c-1
-13 -6 -28 -10 -35 -6 -8 5 -25 34 -52 23 -23 38 -41 31 -41 -6 0 -14 4 -18
10 -3 5 -13 6 -22 3 -11 -4 -14 -3 -9 6 10 16 -12 41 -30 34 -10 -3 -12 0 -8
10 3 8 0 18 -5 22 -13 7 -5 25 10 25 6 0 7 -5 3 -12 -5 -7 -3 -8 5 -3 9 5 9
11 3 17 -11 11 -5 38 8 38 5 0 8 -10 8 -22z m-243 2 c3 5 11 10 16 10 6 0 8
-4 4 -9 -10 -18 16 -23 34 -7 15 14 19 14 39 0 12 -8 27 -12 32 -9 6 3 10 1
10 -4 0 -6 7 -11 15 -11 8 0 15 -4 15 -10 0 -5 10 -19 23 -30 14 -14 17 -20 7
-18 -12 2 -15 -6 -14 -38 1 -36 -2 -41 -20 -41 -15 0 -22 6 -23 19 -2 16 1 17
13 8 10 -9 14 -9 14 -1 0 6 -4 11 -10 11 -5 0 -10 5 -10 11 0 5 5 7 10 4 6 -3
10 -2 10 3 0 6 -7 12 -15 16 -8 3 -15 11 -15 17 0 9 4 9 14 0 10 -8 16 -9 21
-1 4 6 1 9 -6 8 -6 -2 -14 3 -17 11 -3 9 0 11 8 6 9 -5 11 -4 6 4 -4 6 -11 9
-16 6 -4 -3 -11 1 -14 7 -3 7 -3 2 0 -10 5 -21 4 -23 -14 -13 -27 14 -42 37
-19 28 25 -9 21 -2 -10 19 -27 17 -27 17 -13 -1 14 -16 13 -17 -7 -11 -12 4
-24 2 -28 -3 -4 -7 1 -8 11 -4 24 9 9 -14 -18 -28 -18 -10 -20 -9 -15 5 8 19
-2 48 -13 41 -12 -7 -40 5 -40 17 0 6 6 6 14 -1 10 -8 16 -9 21 -1z m380 -7
c-4 -10 -7 -25 -6 -33 3 -36 0 -75 -7 -82 -4 -4 -7 17 -7 46 1 48 -1 54 -16
46 -9 -5 -20 -6 -24 -2 -5 4 -5 0 0 -8 6 -12 5 -12 -5 -3 -15 14 -5 34 14 27
7 -3 19 2 26 11 17 21 34 19 25 -2z m-460 -31 c-5 -4 -11 -14 -13 -22 -5 -19
-22 -40 -33 -40 -5 0 -1 12 8 27 10 15 12 24 6 20 -9 -6 -11 -3 -7 7 3 9 16
16 28 16 11 0 17 -4 11 -8z m91 -22 c-1 -17 -5 -30 -9 -30 -4 0 -11 0 -16 0
-7 0 -8 19 -2 53 0 4 7 7 15 7 9 0 13 -10 12 -30z m74 10 c0 -5 -4 -10 -10
-10 -5 0 -10 5 -10 10 0 6 5 10 10 10 6 0 10 -4 10 -10z m221 -4 c7 4 10 2 7
-7 -3 -8 -14 -13 -24 -11 -15 2 -16 1 -4 -7 9 -7 19 -6 27 1 9 7 13 7 13 -1 0
-6 -5 -11 -11 -11 -8 0 -8 -5 1 -15 21 -25 1 -17 -32 14 -18 17 -28 33 -23 40
5 9 10 9 20 1 8 -7 19 -8 26 -4z m44 -26 c0 -22 -5 -42 -11 -44 -6 -2 -10 11
-8 38 2 47 2 46 12 46 4 0 7 -18 7 -40z m-488 -5 c-15 -11 -14 -13 11 -25 18
-8 22 -14 13 -18 -7 -2 -18 2 -23 9 -7 11 -8 9 -4 -5 5 -14 2 -17 -10 -12 -11
4 -32 -4 -56 -20 -39 -27 -48 -37 -25 -28 8 3 13 -3 13 -15 0 -12 -7 -19 -18
-18 -30 2 -20 40 17 67 19 14 35 28 35 32 0 14 45 56 54 51 5 -3 2 -11 -7 -18z
m256 16 c11 -2 8 -31 -3 -31 -5 0 -10 8 -10 18 -1 16 -1 16 -11 0 -5 -10 -15
-18 -20 -18 -6 0 -7 5 -3 12 4 6 3 8 -4 4 -5 -3 -13 0 -15 6 -3 8 -6 6 -6 -4
-1 -21 -21 -24 -21 -4 0 21 29 26 93 17z m-146 -19 c1 -11 -5 -18 -18 -18 -22
0 -24 7 -7 24 17 17 24 15 25 -6z m271 -20 c-2 -10 4 -17 12 -17 8 0 20 -3 25
-6 6 -4 32 -5 59 -3 36 2 46 0 37 -9 -14 -14 -14 -30 0 -21 8 4 8 1 1 -13 -6
-10 -7 -25 -3 -31 8 -14 2 -70 -8 -76 -4 -3 -6 20 -6 49 1 47 -1 53 -16 45
-16 -9 -29 -4 -29 11 0 4 7 6 16 5 9 0 19 5 21 12 3 6 0 12 -7 12 -6 0 -8 -4
-5 -10 3 -5 1 -10 -4 -10 -6 0 -11 4 -11 9 0 6 -12 9 -27 7 -16 -1 -37 5 -48
13 -19 15 -19 15 -4 -4 18 -22 21 -58 5 -52 -6 2 -10 11 -8 19 4 23 -26 44
-40 30 -7 -7 -9 -12 -5 -12 4 0 3 -9 -3 -20 -6 -10 -17 -17 -24 -14 -8 3 -17
1 -21 -5 -3 -6 -11 -11 -18 -11 -6 0 -4 8 6 17 10 10 25 18 35 18 14 0 17 8
16 42 -1 24 2 41 5 38 4 -2 13 0 21 5 18 11 31 3 28 -18z m-322 -28 c-25 -18
-31 -12 -16 16 9 17 15 19 23 10 9 -9 7 -15 -7 -26z m213 14 c-12 -22 -28 -23
-36 -2 -5 13 -7 13 -14 2 -8 -11 -10 -11 -18 0 -7 11 -9 11 -14 -2 -4 -9 -11
-16 -17 -16 -6 0 -8 5 -4 12 4 7 3 8 -4 4 -7 -4 -12 -1 -12 6 0 9 -3 9 -8 2
-4 -6 -17 -10 -29 -9 -12 1 -20 -2 -17 -7 3 -4 0 -8 -5 -8 -6 0 -11 7 -11 16
0 10 6 14 15 11 8 -4 16 -3 19 1 2 4 40 8 84 8 74 0 80 -2 71 -18z m-119 -20
c0 -4 8 -8 18 -8 10 0 18 -8 19 -18 1 -11 -6 -18 -18 -18 -11 0 -17 5 -15 12
7 19 -6 25 -22 11 -13 -10 -15 -9 -9 8 6 17 4 17 -9 -2 -16 -22 -42 -33 -29
-13 4 6 -1 7 -11 3 -13 -5 -15 -3 -9 8 8 12 6 12 -8 0 -9 -7 -17 -9 -17 -3 0
12 29 24 41 16 5 -3 16 -1 25 4 20 11 44 11 44 0z m80 0 c0 -4 8 -8 18 -8 20
0 26 -27 10 -47 -12 -16 9 -28 26 -14 7 6 16 8 19 4 4 -3 14 0 23 8 16 13 16
12 5 -9 -7 -13 -19 -21 -26 -18 -15 5 -78 -50 -71 -63 3 -4 -7 -8 -22 -8 -20
0 -28 5 -28 19 0 20 7 23 24 8 9 -7 9 -7 2 2 -13 16 -13 38 1 38 5 0 8 -4 4
-9 -9 -15 15 -24 30 -11 11 9 12 16 2 31 -10 16 -9 22 3 30 13 9 12 10 -2 5
-17 -5 -23 5 -18 29 1 6 -4 4 -11 -2 -18 -18 -25 -16 -26 5 -1 11 5 18 18 18
10 0 19 -4 19 -8z m-250 -6 c0 -5 -6 -16 -13 -26 -10 -14 -18 -16 -31 -9 -16
9 -16 10 0 24 11 9 15 9 10 2 -4 -7 -2 -13 3 -13 6 0 11 7 11 15 0 8 5 15 10
15 6 0 10 -4 10 -8z m50 -12 c11 -20 6 -40 -9 -40 -5 0 -7 11 -5 26 2 21 0 23
-12 13 -8 -7 -12 -19 -9 -27 4 -10 0 -12 -10 -8 -9 3 -14 2 -11 -3 3 -5 -1
-14 -9 -21 -23 -19 -18 1 10 43 29 42 40 45 55 17z m332 -10 c-1 -7 3 -19 10
-28 10 -12 10 -14 1 -8 -7 4 -13 3 -13 -3 0 -9 31 -9 69 1 7 1 15 -2 18 -8 4
-12 -1 -13 -69 -17 -25 -1 -44 -6 -40 -11 3 -5 -1 -6 -8 -1 -9 5 -11 4 -6 -3
4 -7 -4 -23 -18 -37 -32 -32 -32 -38 0 -70 14 -14 22 -30 19 -35 -9 -15 -25
-12 -19 3 6 18 -22 42 -31 27 -3 -5 -11 -10 -16 -10 -6 0 -7 6 -2 13 10 16 13
66 3 72 -4 2 -6 -12 -4 -32 2 -32 1 -34 -13 -20 -10 9 -12 20 -7 29 5 7 9 15
9 18 1 15 49 58 60 54 7 -3 16 0 20 5 3 6 10 9 14 7 4 -3 6 13 5 35 -1 26 3
38 10 36 6 -3 10 -10 8 -17z m-217 -15 c0 -34 -25 -49 -42 -27 -7 9 -13 13
-13 7 0 -5 -5 -3 -11 5 -9 12 -10 12 -5 -3 4 -12 2 -17 -6 -14 -7 2 -12 10
-10 16 1 7 -3 9 -9 6 -8 -5 -8 -10 0 -18 17 -17 13 -31 -4 -17 -19 16 -53 -6
-35 -24 16 -16 12 -30 -5 -16 -13 10 -19 10 -35 -5 -11 -10 -20 -13 -20 -7 0
6 8 17 18 24 9 7 24 22 32 33 11 15 7 14 -13 -4 -15 -14 -27 -19 -27 -13 0 16
40 41 56 35 7 -2 18 4 25 15 11 17 16 18 36 9 19 -9 26 -8 34 4 5 8 9 10 9 5
0 -6 5 -5 12 2 7 7 12 12 13 12 0 0 1 -11 0 -25z m298 12 c-7 -12 16 -37 30
-31 8 3 12 -9 12 -36 0 -43 -20 -51 -20 -8 -1 37 -23 60 -44 48 -13 -6 -18 -5
-18 5 0 8 5 11 10 8 6 -4 8 0 4 10 -4 11 0 15 13 14 10 -1 16 -5 13 -10z
m-217 -36 c-3 -5 1 -12 10 -15 16 -6 11 -26 -7 -26 -6 0 -7 5 -4 10 3 6 -1 13
-10 16 -13 5 -13 9 -3 23 12 14 11 14 -4 3 -9 -8 -23 -10 -29 -6 -8 4 -9 3 -5
-4 4 -7 2 -12 -3 -12 -6 0 -11 7 -11 16 0 10 6 14 14 11 8 -3 20 1 27 9 11 14
13 13 21 0 5 -9 7 -20 4 -25z m-284 0 c-1 -7 2 -21 8 -31 8 -15 8 -20 -1 -20
-7 0 -9 -9 -5 -24 4 -15 0 -28 -9 -36 -8 -7 -15 -10 -15 -7 0 3 -3 13 -6 21
-4 11 -2 15 7 13 8 -2 11 -2 6 0 -4 3 -5 9 -1 14 3 5 -2 12 -10 15 -13 5 -13
10 -4 27 7 12 11 28 9 36 -1 7 3 11 11 8 7 -2 12 -10 10 -16z m-80 -3 c-9 -9
-8 -16 5 -30 9 -10 11 -18 6 -18 -17 0 -34 26 -27 44 3 9 11 16 17 16 7 0 7
-4 -1 -12z m253 -46 c-8 -8 -25 10 -19 20 5 7 2 8 -5 3 -9 -5 -10 -10 -2 -18
17 -17 13 -31 -4 -17 -24 20 -53 -12 -50 -53 2 -18 4 -32 5 -32 6 0 5 -47 -2
-51 -4 -3 -9 -2 -9 3 -1 4 -3 17 -5 28 -11 68 -10 77 8 100 14 18 15 23 5 19
-18 -6 -32 12 -17 21 6 4 18 1 26 -6 12 -10 18 -8 31 11 l16 23 13 -24 c7 -13
11 -26 9 -27z m-215 21 c0 -17 -15 -16 -30 1 -9 12 -8 15 9 13 12 -1 21 -7 21
-14z m289 -5 c-5 -10 -14 -18 -20 -18 -6 0 -7 5 -3 12 4 7 3 8 -4 4 -7 -4 -12
-1 -12 6 0 10 -3 9 -10 -2 -5 -8 -12 -11 -17 -7 -11 12 13 24 47 24 25 0 28
-3 19 -19z m-329 -31 c0 -5 -7 -4 -15 3 -8 6 -19 9 -25 5 -5 -3 -10 -1 -10 4
0 6 5 11 11 11 5 0 7 6 3 13 -4 6 2 3 14 -7 12 -11 22 -23 22 -29z m600 30 c0
-5 -6 -7 -14 -4 -8 3 -13 -1 -12 -10 0 -9 -5 -18 -12 -20 -8 -3 -10 2 -6 14 4
13 3 15 -4 4 -5 -7 -12 -9 -14 -5 -3 5 -3 3 -1 -5 2 -8 -2 -11 -12 -8 -8 4
-17 2 -20 -3 -4 -6 -11 -10 -17 -10 -6 0 -5 7 3 18 13 15 12 16 -3 3 -25 -19
-12 -32 25 -25 26 4 30 3 20 -7 -16 -16 -17 -29 -2 -29 5 0 8 4 4 9 -9 15 36
41 54 32 9 -4 29 -6 45 -5 22 2 26 0 18 -8 -15 -15 -16 -31 -1 -22 8 4 8 1 1
-13 -6 -10 -7 -25 -3 -31 8 -14 2 -70 -8 -76 -4 -3 -6 20 -6 49 1 45 -1 53
-14 46 -9 -4 -27 -6 -41 -4 -61 8 -95 7 -95 -2 0 -5 11 -9 25 -8 19 1 26 -4
27 -18 1 -10 -2 -19 -8 -19 -5 0 -9 5 -9 11 0 6 -8 8 -18 5 -12 -4 -26 5 -46
30 l-28 36 21 19 c12 11 21 24 21 29 0 5 10 14 21 21 15 8 19 8 15 0 -4 -6 -2
-11 3 -11 6 0 11 5 11 11 0 6 6 9 13 6 8 -3 19 -2 26 2 17 11 41 9 41 -2z
m-313 -35 c0 -18 -6 -29 -14 -29 -8 0 -11 7 -9 14 3 8 2 12 -3 9 -10 -7 -9
-61 2 -73 5 -4 5 0 2 8 -4 10 0 16 8 16 8 0 14 -11 14 -28 0 -24 -3 -27 -18
-18 -23 12 -38 39 -32 59 4 12 3 12 -5 2 -7 -11 -10 -10 -16 3 -3 9 -3 22 1
28 4 7 -1 6 -11 -2 -12 -10 -14 -16 -5 -21 8 -6 8 -9 -1 -15 -8 -5 -7 -12 6
-26 12 -14 13 -19 4 -19 -7 0 -10 -3 -7 -6 4 -4 13 -1 22 6 9 8 15 8 15 2 0
-6 -5 -14 -11 -18 -8 -4 -8 -9 0 -17 6 -6 11 -16 11 -21 0 -6 -11 1 -25 16
-14 15 -25 31 -24 35 1 4 0 10 -1 13 -9 20 -5 71 6 81 15 12 38 3 29 -12 -11
-17 4 -9 29 16 31 31 33 31 33 -3z m-239 10 c9 -7 8 -13 -8 -27 -22 -20 -28
-8 -7 15 10 12 9 12 -6 0 -11 -8 -15 -20 -12 -29 13 -31 12 -61 -2 -72 -11
-10 -13 -7 -9 17 3 16 1 36 -4 44 -6 10 -10 11 -10 3 0 -7 -4 -13 -9 -13 -5 0
-8 11 -7 24 3 24 3 24 -22 8 -25 -16 -26 -16 -19 1 9 24 0 21 -14 -4 -6 -12
-7 -19 -1 -15 5 3 13 -1 16 -10 4 -12 2 -15 -9 -10 -24 9 -45 -4 -37 -22 5
-15 4 -16 -13 -2 -11 9 -16 10 -11 3 4 -7 2 -13 -3 -13 -18 0 -12 28 7 34 9 3
26 19 37 36 16 23 26 29 50 26 17 -1 29 -8 28 -14 -4 -19 11 -14 25 8 13 22
20 24 40 12z m99 -43 c1 -19 4 -46 6 -60 3 -20 0 -26 -12 -24 -9 2 -19 4 -23
4 -5 1 -8 5 -8 11 0 5 6 8 13 6 6 -1 8 -1 3 2 -4 2 -2 9 5 14 11 8 10 9 -3 4
-21 -6 -24 12 -4 20 8 3 13 16 12 29 -1 18 -4 21 -15 12 -9 -8 -10 -12 -2 -15
6 -2 8 -8 5 -14 -4 -6 -9 -5 -15 3 -4 7 -7 -7 -5 -35 1 -26 -2 -50 -6 -53 -5
-3 -7 -12 -4 -20 4 -9 1 -13 -6 -10 -7 2 -11 11 -9 18 1 8 4 31 6 52 3 34 2
37 -10 21 -7 -10 -10 -25 -7 -33 4 -9 1 -12 -7 -7 -16 10 -41 -12 -34 -30 3
-10 0 -12 -10 -8 -8 3 -18 0 -22 -5 -7 -13 -25 -5 -25 10 0 6 4 8 9 5 5 -3 25
10 45 30 35 35 49 58 22 35 -11 -9 -13 -6 -13 14 0 14 4 25 9 25 5 0 7 -4 4
-9 -3 -5 1 -11 9 -15 9 -3 25 8 41 30 32 42 48 39 51 -7z m173 31 c0 -5 -7
-10 -15 -10 -8 0 -15 5 -15 10 0 6 7 10 15 10 8 0 15 -4 15 -10z m285 0 c3 -6
-1 -7 -9 -4 -18 7 -21 14 -7 14 6 0 13 -4 16 -10z m-276 -41 c4 -12 1 -12 -15
1 -18 14 -18 14 -5 -2 8 -11 9 -18 3 -18 -15 0 -25 18 -17 31 9 13 27 7 34
-12z m31 1 c0 -11 -4 -20 -10 -20 -5 0 -10 9 -10 20 0 11 5 20 10 20 6 0 10
-9 10 -20z m-395 0 c-3 -5 -10 -10 -16 -10 -5 0 -9 5 -9 10 0 6 7 10 16 10 8
0 12 -4 9 -10z m20 -20 c10 9 12 3 10 -27 -1 -21 -6 -38 -11 -38 -5 -1 -19 -6
-31 -13 -19 -11 -22 -10 -20 8 1 15 7 18 29 16 15 -2 25 1 22 6 -3 5 -11 7
-17 5 -7 -3 -23 5 -36 17 -13 11 -21 16 -18 9 4 -6 4 -13 0 -16 -5 -2 -3 -2 4
-1 6 2 11 -6 10 -17 -1 -22 -10 -24 -25 -6 -16 19 -3 59 17 53 9 -3 23 -1 31
4 10 6 16 6 18 -1 3 -6 8 -6 17 1z m240 -1 c11 -17 -1 -21 -15 -4 -8 9 -8 15
-2 15 6 0 14 -5 17 -11z m162 -13 c4 -5 1 -7 -9 -3 -9 3 -22 -1 -28 -9 -15
-17 -30 -18 -26 -1 1 6 1 9 -1 4 -3 -4 -10 -4 -16 0 -6 4 -1 -6 11 -22 20 -25
21 -30 7 -37 -8 -5 -13 -13 -10 -19 4 -5 1 -9 -4 -9 -14 0 -14 23 0 37 8 8 8
13 0 18 -6 3 -10 1 -9 -6 2 -6 -3 -14 -10 -16 -11 -4 -12 -1 -3 15 6 11 8 27
5 35 -3 10 1 17 13 19 29 7 71 3 80 -6z m213 -10 c23 2 25 -1 25 -37 0 -43
-20 -49 -20 -6 -1 34 -14 46 -26 24 -13 -22 -30 -22 -22 0 4 10 2 14 -4 10 -5
-3 -10 0 -10 8 0 9 6 11 16 6 9 -4 27 -6 41 -5z m-756 -29 c-3 -9 -10 -17 -16
-17 -5 0 -6 5 -2 12 4 7 3 8 -5 4 -15 -10 -3 -29 15 -22 8 3 14 2 14 -3 0 -15
-13 -21 -26 -10 -9 7 -18 7 -31 0 -10 -6 -12 -11 -5 -11 6 0 12 -4 12 -10 0
-5 -3 -9 -7 -9 -25 4 -36 -2 -26 -12 6 -6 9 -19 6 -28 -4 -13 -3 -13 5 -2 6 8
8 20 6 26 -3 8 4 12 17 11 12 0 24 -7 25 -14 1 -7 0 -8 -2 -3 -3 6 -16 -1 -28
-16 -19 -22 -25 -24 -45 -14 -17 10 -26 10 -37 0 -11 -9 -14 -8 -14 3 0 9 16
26 35 39 19 13 35 27 35 30 0 3 15 22 33 41 31 35 54 37 41 5z m564 -3 c10
-17 62 -27 59 -11 -2 12 32 16 48 6 16 -9 54 -8 60 2 11 17 26 9 20 -10 -3
-11 -1 -22 5 -26 6 -3 8 -10 5 -14 -2 -5 10 -7 27 -5 25 3 29 1 20 -8 -15 -15
-16 -32 -1 -22 7 4 7 -1 -1 -15 -9 -17 -15 -20 -25 -11 -7 6 -19 9 -26 8 -7
-2 -14 6 -16 17 -3 15 -2 17 6 6 7 -11 9 -8 8 12 -1 14 -5 23 -10 20 -4 -2 -6
1 -5 7 2 8 -13 13 -39 15 -24 1 -43 -2 -43 -7 0 -5 4 -7 8 -4 5 3 9 -1 9 -9 0
-8 -5 -12 -10 -8 -5 3 -6 -3 -3 -15 8 -25 -8 -37 -31 -23 -13 7 -23 5 -35 -6
-10 -9 -18 -11 -18 -6 0 26 45 41 61 20 3 -4 5 10 5 32 -1 22 -4 42 -8 46 -3
3 -5 -2 -4 -12 1 -19 -30 -25 -51 -9 -8 5 -19 4 -28 -4 -17 -14 -21 0 -5 16 8
8 6 15 -4 23 -16 14 -40 6 -31 -10 4 -5 1 -9 -4 -9 -14 0 -14 23 1 38 13 13
42 1 56 -24z m29 6 c-1 -17 -3 -18 -15 -6 -8 8 -11 19 -7 25 9 16 24 4 22 -19z
m-559 15 c-3 -3 10 -21 30 -41 32 -32 33 -36 18 -47 -16 -12 -15 -13 11 -12
18 0 28 5 28 15 0 8 -6 14 -12 13 -7 -2 -13 2 -13 7 0 13 27 13 35 0 5 -8 11
-8 20 0 7 6 19 9 26 8 8 -2 14 5 14 17 0 14 7 20 23 21 18 1 20 -1 11 -12 -9
-11 -8 -18 2 -31 13 -15 12 -15 -8 -4 -22 11 -26 10 -20 -6 3 -10 34 -11 49
-2 7 5 13 16 13 26 0 19 27 24 57 11 9 -5 20 -4 23 2 4 6 15 2 27 -10 25 -23
50 -11 29 14 -7 9 -8 17 -2 20 12 8 41 -3 41 -16 0 -5 -4 -6 -10 -3 -17 11
-11 -3 14 -30 14 -15 30 -24 36 -20 6 3 8 10 5 14 -2 5 7 13 21 20 14 6 22 16
19 21 -3 6 -2 10 4 10 17 0 23 -20 7 -26 -12 -5 -13 -9 -3 -25 6 -10 15 -19
20 -19 4 0 6 4 2 9 -8 15 14 24 29 12 7 -6 22 -9 34 -6 14 2 19 -1 16 -9 -6
-16 -37 -14 -58 3 -14 12 -16 12 -11 -2 4 -8 1 -19 -7 -23 -14 -9 -51 -14 -43
-6 3 3 0 11 -6 19 -10 11 -14 10 -24 -4 -16 -22 -53 -24 -68 -3 -20 28 -52 41
-67 27 -7 -7 -10 -7 -7 -1 3 6 1 11 -6 12 -7 0 -25 3 -40 5 -15 2 -25 2 -22
-1 2 -3 1 -10 -5 -16 -5 -7 -5 -17 0 -26 9 -13 10 -13 11 0 1 8 1 18 0 23 0 4
3 7 7 7 17 0 21 -13 10 -34 -10 -19 -10 -20 6 -7 9 8 15 20 12 28 -10 24 14
13 26 -12 8 -18 14 -22 19 -13 4 7 11 9 16 5 9 -9 -17 -28 -32 -23 -5 2 -9 8
-8 14 2 6 -13 2 -33 -10 l-35 -21 -6 22 c-3 11 -10 21 -15 21 -5 0 -7 -4 -4
-9 3 -5 0 -14 -8 -20 -10 -9 -15 -8 -20 4 -3 9 -2 13 4 10 6 -3 10 -1 10 4 0
14 -13 14 -27 0 -15 -15 -63 -20 -63 -7 0 6 -6 5 -15 -2 -12 -10 -19 -10 -27
-2 -8 8 -17 8 -31 0 -16 -8 -23 -7 -34 8 -7 10 -11 25 -8 32 3 7 0 22 -6 33
-10 19 2 49 19 49 3 0 3 -2 0 -5z m697 -82 c-1 -12 -7 -29 -14 -36 -6 -8 -9
-17 -6 -21 3 -3 0 -2 -6 3 -8 6 -8 15 1 31 8 14 8 25 1 33 -7 9 -5 13 8 13 14
0 18 -7 16 -23z m-615 -3 c0 -5 -5 -10 -11 -10 -5 0 -7 5 -4 10 3 6 8 10 11
10 2 0 4 -4 4 -10z m2916 -806 c22 -4 46 -8 54 -8 9 -1 20 -5 25 -8 6 -3 27
-4 48 -3 20 2 37 -2 37 -7 0 -6 -6 -8 -14 -5 -10 4 -13 -1 -11 -19 1 -15 -2
-23 -9 -21 -6 2 -10 11 -8 20 1 8 -2 18 -8 22 -5 3 -7 0 -5 -7 4 -9 -2 -14
-15 -14 -13 0 -19 5 -15 14 3 8 0 10 -7 6 -7 -5 -8 -2 -3 7 5 8 4 11 0 7 -5
-5 -9 -26 -10 -47 -2 -38 -1 -39 28 -38 17 1 32 -3 34 -9 2 -6 -13 -10 -40
-10 l-44 1 2 51 c2 49 1 52 -21 49 -13 -1 -21 1 -19 6 8 11 -45 3 -58 -10 -8
-8 -8 -14 0 -22 15 -15 36 -1 29 18 -4 9 -1 13 6 10 7 -2 11 -11 9 -18 -2 -8
-4 -33 -5 -56 -1 -35 -4 -42 -18 -37 -9 2 -19 0 -23 -6 -3 -5 -11 -10 -17 -10
-7 0 -7 4 0 13 6 7 9 26 6 43 -4 23 -3 27 7 17 16 -16 29 -17 29 -2 0 5 -4 8
-9 4 -5 -3 -17 5 -25 17 -12 17 -13 25 -3 37 11 14 10 14 -5 2 -14 -10 -15
-18 -7 -32 5 -10 8 -19 5 -19 -2 0 -13 -3 -23 -7 -16 -6 -16 -5 -4 10 16 20 5
23 -14 3 -12 -12 -12 -15 1 -20 8 -3 12 -11 8 -17 -4 -8 -9 -7 -16 2 -6 10 -7
7 -3 -8 5 -18 3 -22 -9 -17 -8 3 -12 13 -9 22 4 14 3 15 -5 2 -6 -8 -8 -19 -5
-25 3 -5 0 -4 -7 2 -11 10 -4 22 36 67 35 38 54 52 68 49 13 -4 16 -1 11 7 -5
8 -4 11 2 7 6 -4 28 -10 49 -13z m221 -27 c21 1 43 5 50 7 7 3 13 0 13 -6 0
-6 6 -5 17 3 29 24 46 0 31 -44 -6 -16 -7 -32 -2 -36 12 -8 11 -37 0 -48 -5
-4 -6 -3 -3 4 5 7 1 9 -11 6 -13 -3 -18 2 -19 17 -2 18 1 19 13 10 10 -9 14
-9 14 -1 0 6 -5 11 -11 11 -5 0 -7 5 -4 10 3 6 -1 13 -9 16 -9 3 -13 10 -10
16 4 5 10 5 18 -1 8 -7 12 -5 13 9 1 11 -2 22 -8 25 -5 3 -6 -1 -2 -11 5 -14
3 -15 -16 -5 -25 14 -45 5 -37 -15 4 -10 0 -14 -12 -12 -9 2 -20 9 -23 17 -3
8 -15 15 -27 16 -11 1 -19 -2 -16 -7 4 -5 12 -7 20 -4 17 6 19 -10 2 -20 -6
-4 -17 0 -23 10 -12 15 -13 15 -18 -3 -3 -12 0 -18 7 -15 6 2 12 -7 12 -22 2
-24 1 -25 -17 -8 -10 9 -19 14 -19 10 0 -4 10 -16 23 -27 12 -10 17 -18 10
-19 -6 0 -15 5 -18 10 -4 6 -13 7 -23 1 -9 -5 -21 -10 -27 -10 -5 -1 -10 -8
-10 -16 0 -8 -8 -22 -18 -32 -9 -10 -17 -12 -17 -6 0 7 4 14 9 18 6 3 9 14 8
25 -1 10 -5 16 -10 13 -4 -3 -6 -11 -3 -18 2 -7 0 -17 -6 -23 -8 -8 -8 -16 2
-27 14 -17 0 -21 -16 -5 -8 8 -15 6 -23 -4 -14 -16 -6 -40 10 -31 5 4 9 1 9
-4 0 -16 -26 -13 -40 4 -9 11 -7 19 15 41 26 26 44 81 22 67 -6 -3 -7 -1 -3 5
3 6 24 9 46 7 22 -2 43 1 46 6 10 16 -17 39 -40 35 -16 -3 -22 1 -22 14 0 22
30 19 57 -6 18 -17 25 -10 20 19 -1 9 33 45 37 37 1 -4 19 -5 39 -3z m-257 -7
c0 -5 -4 -10 -10 -10 -5 0 -10 5 -10 10 0 6 5 10 10 10 6 0 10 -4 10 -10z m68
-8 c2 -7 -2 -10 -10 -7 -9 4 -15 0 -15 -9 0 -8 6 -12 14 -9 7 3 13 0 13 -6 0
-6 -4 -11 -10 -11 -5 0 -10 -5 -10 -11 0 -5 4 -8 8 -5 5 3 8 -5 7 -17 -1 -12
2 -30 6 -39 7 -12 4 -21 -9 -30 -32 -22 -44 -54 -27 -68 20 -17 19 -26 -4 -26
-14 0 -18 7 -16 31 2 16 3 31 4 33 8 19 -44 26 -66 9 -9 -6 -13 -6 -13 1 0 6
5 14 10 17 16 10 -10 37 -27 31 -8 -3 -16 1 -19 9 -5 13 -9 13 -27 0 -18 -13
-22 -12 -33 3 -10 14 -11 12 -8 -16 4 -36 -2 -40 -23 -14 -8 9 -12 12 -9 6 3
-7 -1 -17 -9 -24 -8 -7 -12 -17 -8 -23 4 -6 0 -8 -10 -4 -11 4 -14 2 -10 -9 3
-10 0 -12 -10 -8 -8 3 -18 1 -22 -5 -3 -7 0 -8 9 -5 9 4 16 1 16 -6 0 -7 -8
-10 -19 -7 -14 3 -18 1 -14 -9 4 -10 0 -12 -13 -8 -16 5 -17 4 -4 -6 13 -10
12 -11 -5 -6 -20 6 -20 6 -1 -9 22 -17 22 -17 -16 -19 -15 0 -34 -10 -42 -21
-9 -11 -16 -16 -16 -11 0 15 32 46 48 46 9 0 12 3 9 7 -8 7 113 137 128 138 6
0 10 5 10 10 0 6 4 15 8 22 10 15 39 5 30 -11 -4 -6 1 -5 10 2 9 8 21 11 26 8
5 -4 18 7 27 23 20 33 32 33 30 -1 -1 -14 -7 -23 -18 -23 -9 0 -20 -4 -25 -9
-4 -5 -3 -6 4 -2 8 4 24 -4 38 -18 32 -33 36 -32 74 3 23 21 26 28 13 27 -13
-1 -17 7 -17 34 0 19 3 43 8 53 9 19 28 19 35 -1z m252 -12 c0 -5 -4 -10 -10
-10 -5 0 -10 5 -10 10 0 6 5 10 10 10 6 0 10 -4 10 -10z m-40 -37 c0 -16 -12
-17 -30 0 -12 10 -12 9 -1 -5 15 -20 5 -23 -19 -8 -13 9 -13 11 -1 19 20 13
51 9 51 -6z m48 8 c10 -6 10 -10 -2 -20 -8 -7 -19 -10 -25 -7 -12 8 -22 -20
-15 -39 5 -11 2 -13 -10 -9 -9 3 -13 11 -9 17 3 6 1 7 -5 3 -21 -13 -13 4 16
34 30 32 32 33 50 21z m-63 -79 c16 -7 26 -8 30 -1 7 10 25 3 25 -11 0 -4 -11
-7 -25 -6 -13 2 -22 -1 -19 -5 3 -5 0 -9 -5 -9 -6 0 -11 7 -11 16 0 12 -5 11
-20 -7 -21 -26 -26 -20 -9 14 10 21 10 21 -5 3 -9 -11 -16 -14 -16 -8 0 7 -5
12 -11 12 -5 0 -7 -4 -4 -10 10 -17 -7 -11 -22 8 -13 15 -13 15 -4 -5 9 -18 8
-22 -8 -20 -12 1 -18 9 -18 24 0 12 3 21 6 18 4 -2 13 0 21 5 9 5 19 5 27 -2
13 -11 27 -5 29 13 3 21 7 23 11 3 2 -12 15 -26 28 -32z m64 31 c-3 -20 2 -34
10 -29 5 4 16 4 24 0 12 -4 13 -11 4 -35 -11 -28 -30 -41 -24 -17 1 7 -8 13
-20 14 -23 1 -70 -51 -54 -60 10 -7 8 -66 -3 -85 -4 -6 -3 -17 3 -24 7 -9 5
-13 -8 -14 -13 -1 -17 6 -17 28 0 23 3 28 15 24 12 -5 13 -3 4 6 -12 12 -37 3
-28 -11 5 -8 -25 -24 -32 -16 -3 2 12 21 32 43 33 35 34 39 18 51 -14 10 -20
10 -32 -2 -12 -12 -12 -18 -1 -30 8 -10 8 -16 2 -16 -6 0 -14 5 -18 11 -4 8
-9 8 -17 0 -6 -6 -16 -11 -21 -11 -6 0 9 19 33 41 30 28 46 37 51 29 5 -8 9
-7 13 5 4 9 3 13 -3 10 -6 -3 -10 0 -10 7 0 9 -3 9 -10 -2 -8 -12 -13 -13 -29
-3 -13 8 -22 9 -26 3 -3 -6 -12 -10 -18 -10 -7 1 -1 10 12 21 22 18 26 18 33
4 6 -9 14 -12 21 -8 7 4 21 9 32 10 63 5 81 23 46 45 -27 16 -27 28 -1 28 11
0 19 -3 19 -7z m-319 -28 c-15 -14 -23 -16 -31 -8 -16 16 -3 31 26 29 24 -1
24 -1 5 -21z m-106 -2 c4 -4 13 -8 19 -8 16 0 21 -19 6 -24 -6 -2 -9 1 -6 6 3
5 0 10 -8 10 -20 0 -19 -2 10 -32 29 -28 36 -31 33 -13 -2 7 11 12 31 14 30 2
32 0 18 -14 -13 -12 -19 -13 -30 -4 -12 10 -14 7 -12 -21 2 -26 -1 -33 -16
-33 -21 0 -24 6 -9 24 7 9 7 9 -2 2 -16 -13 -38 -13 -38 1 0 5 4 8 9 4 16 -9
24 15 10 31 -8 10 -15 12 -23 4 -13 -13 -36 -13 -36 0 0 6 5 9 12 8 7 -2 13 7
14 19 1 12 -2 20 -7 17 -4 -2 -6 -11 -2 -19 7 -21 -1 -19 -23 7 -10 12 -14 19
-9 15 6 -3 17 -2 25 4 18 11 25 11 34 2z m-51 -49 c-2 -7 4 -17 15 -23 16 -8
21 -7 26 5 6 16 26 10 26 -7 0 -6 -5 -7 -10 -4 -6 3 -13 -1 -16 -10 -5 -13 -9
-13 -22 -3 -23 19 -69 18 -88 -3 -16 -18 -11 -45 7 -34 5 4 9 1 9 -4 0 -14
-23 -14 -37 0 -8 8 -13 8 -17 0 -4 -6 -12 -11 -18 -11 -7 0 9 20 35 45 45 42
61 65 35 49 -6 -4 -8 -3 -5 3 9 15 66 12 60 -3z m307 4 c0 -4 -6 -8 -12 -8 -7
0 -5 -5 5 -11 13 -8 22 -7 32 1 10 8 15 8 20 0 8 -13 -22 -50 -39 -50 -6 0 0
10 14 21 17 14 18 17 5 11 -13 -7 -26 -7 -38 0 -14 7 -23 5 -37 -7 -16 -15
-18 -15 -24 0 -3 9 -10 13 -16 10 -5 -3 -10 -2 -10 4 0 17 20 23 26 7 5 -12 9
-13 25 -3 10 6 19 15 19 20 0 4 -5 5 -12 1 -6 -4 -8 -3 -4 4 7 12 46 12 46 0z
m175 -8 c-10 -16 18 -23 30 -7 9 12 11 7 9 -26 -1 -23 -2 -46 -3 -52 -1 -5
-12 -11 -26 -11 -21 -2 -23 1 -14 17 5 10 14 19 20 19 6 0 7 -5 3 -12 -4 -7
-3 -8 4 -4 19 11 14 26 -8 26 -11 0 -19 3 -19 8 3 19 -2 32 -12 30 -6 -2 -13
2 -15 7 -2 6 5 11 16 12 11 1 18 -2 15 -7z m-467 -43 c6 -5 12 -13 12 -19 0
-6 -9 -3 -19 6 -15 13 -20 14 -24 4 -5 -11 -7 -10 -15 1 -6 8 -12 9 -16 3 -7
-12 19 -23 37 -16 8 3 13 -3 13 -16 0 -13 -5 -19 -14 -15 -18 7 -54 -13 -47
-26 4 -5 2 -9 -4 -9 -20 0 -21 19 -1 30 21 11 22 37 1 33 -14 -4 -14 10 0 24
12 12 57 12 77 0z m142 3 c0 -5 -9 -10 -20 -10 -11 0 -20 5 -20 10 0 6 9 10
20 10 11 0 20 -4 20 -10z m135 2 c15 -11 17 -42 3 -42 -8 0 -5 -5 5 -11 13 -8
22 -7 32 1 8 7 15 7 19 1 8 -12 -3 -41 -16 -41 -5 0 -6 5 -3 10 3 6 1 10 -4
10 -18 0 -12 -19 9 -30 11 -6 20 -15 20 -21 0 -6 -5 -7 -12 -3 -6 4 -8 3 -5
-3 4 -6 0 -14 -9 -17 -12 -4 -15 -2 -10 9 8 21 -3 45 -18 39 -7 -3 -19 2 -26
11 -15 18 0 21 18 3 9 -9 12 -9 12 -1 0 7 -8 14 -18 17 -10 3 -18 15 -18 26 0
12 5 19 13 16 7 -3 10 1 6 10 -5 13 -8 13 -24 -2 -21 -19 -27 -6 -7 14 14 14
19 15 33 4z m104 -29 c-8 -9 -16 -10 -22 -4 -13 13 0 31 19 24 11 -4 12 -8 3
-20z m-319 -14 c0 -6 -5 -7 -12 -3 -6 4 -8 3 -5 -3 4 -6 0 -14 -9 -17 -12 -5
-14 -1 -10 17 3 12 3 16 0 10 -7 -16 -34 -17 -34 -2 0 5 5 7 10 4 6 -3 13 1
16 9 5 12 10 13 25 5 10 -5 19 -14 19 -20z m181 6 c5 4 9 1 9 -4 0 -14 -27
-14 -35 -1 -5 8 -11 7 -20 0 -8 -7 -20 -8 -26 -4 -8 4 -9 3 -5 -4 4 -7 2 -12
-3 -12 -6 0 -11 7 -11 16 0 9 6 14 13 11 7 -3 21 2 32 9 17 12 20 12 28 -1 4
-9 12 -13 18 -10z m-106 -5 c0 -7 -7 -16 -15 -18 -13 -5 -13 -3 0 14 14 18 14
18 -2 5 -17 -13 -26 -2 -11 13 10 10 28 1 28 -14z m-45 -5 c0 -8 -4 -15 -10
-15 -5 0 -10 7 -10 15 0 8 5 15 10 15 6 0 10 -7 10 -15z m-194 -20 c-6 -17 19
-39 34 -30 6 3 8 11 5 16 -7 10 -5 11 40 14 42 3 48 -3 32 -29 -13 -19 -13
-25 -1 -41 8 -10 14 -14 14 -8 0 7 -5 15 -10 18 -12 7 -4 25 11 25 6 0 8 -4 4
-9 -3 -5 16 -30 42 -55 26 -25 42 -46 36 -46 -7 0 -14 4 -18 10 -3 5 -12 7
-20 3 -10 -3 -13 -1 -10 9 9 24 -18 40 -40 24 -18 -13 -17 -13 9 -11 17 2 26
-1 23 -8 -2 -7 -11 -11 -20 -9 -8 1 -18 -1 -21 -6 -6 -10 -4 -10 82 -16 34 -2
65 1 68 5 3 5 10 6 16 3 7 -5 8 -2 3 5 -5 9 -10 10 -18 2 -6 -6 -16 -11 -21
-11 -6 1 0 10 13 20 22 19 25 19 36 4 9 -14 14 -14 20 -4 6 9 4 11 -5 5 -10
-6 -12 -4 -7 9 4 10 3 15 -3 11 -6 -3 -10 -2 -10 4 0 6 8 15 19 20 16 9 18 7
17 -18 -1 -17 -13 -41 -28 -56 -15 -15 -25 -31 -22 -36 3 -5 0 -17 -6 -26 -11
-16 -11 -16 -6 -1 3 10 1 20 -5 24 -6 3 -3 12 8 21 17 13 17 14 -2 5 -11 -5
-33 -7 -50 -6 -20 2 -25 0 -16 -5 8 -5 20 -7 28 -4 7 3 13 1 13 -4 0 -15 -33
-12 -52 4 -9 8 -21 12 -27 9 -5 -4 -12 -2 -16 4 -3 5 -11 10 -18 10 -6 0 -1
-7 11 -16 12 -8 22 -20 22 -26 0 -6 -10 -2 -23 10 -19 18 -26 19 -37 9 -12
-10 -12 -9 -3 3 6 8 10 26 9 40 -1 14 1 30 6 36 8 11 -51 79 -60 69 -4 -3 -7
-18 -8 -33 -3 -48 -4 -52 -14 -52 -5 0 -10 7 -10 15 0 8 5 15 11 15 6 0 1 9
-12 21 -18 16 -20 19 -6 15 11 -4 16 -2 12 5 -4 5 -16 7 -28 3 -20 -6 -21 -5
-7 12 11 15 11 16 0 7 -8 -7 -19 -13 -24 -13 -6 1 0 10 13 20 13 11 19 20 13
20 -5 0 -15 -7 -22 -15 -7 -9 -19 -14 -26 -11 -7 3 -16 1 -19 -5 -4 -5 -12 -7
-18 -3 -7 3 -4 -1 6 -9 22 -18 22 -27 -2 -27 -17 0 -20 13 -12 52 0 3 12 5 25
4 13 -2 34 5 47 15 25 19 44 16 35 -6z m324 4 c0 -6 -5 -7 -11 -4 -5 4 -19 -1
-29 -10 -17 -15 -22 -16 -37 -4 -16 13 -17 12 -4 -3 8 -11 9 -18 3 -18 -6 0
-19 8 -28 18 -17 16 -18 16 -11 0 7 -21 -3 -24 -21 -6 -7 7 -12 8 -12 4 0 -4
10 -16 23 -27 12 -10 17 -18 10 -19 -6 0 -14 4 -18 10 -3 5 -13 6 -21 3 -24
-9 4 -22 39 -17 24 3 27 1 17 -11 -6 -7 -19 -11 -27 -8 -13 5 -12 2 3 -14 10
-11 23 -17 29 -15 5 3 3 8 -3 10 -10 3 -10 7 -1 18 16 19 30 18 22 -3 -6 -15
-5 -16 9 -3 9 8 12 17 7 18 -5 2 -7 8 -4 13 4 5 -2 6 -11 2 -24 -9 -9 13 18
28 18 10 19 8 13 -13 -3 -12 -3 -18 2 -13 11 14 33 17 33 5 0 -5 -6 -10 -14
-10 -8 0 -18 -9 -21 -20 -3 -11 -10 -20 -15 -20 -5 0 -16 -7 -25 -16 -15 -16
-20 -14 -60 26 -25 24 -42 46 -40 48 3 3 0 11 -6 18 -16 20 18 32 84 29 34 -1
64 3 74 11 19 13 33 10 33 -7z m27 -19 c1 -11 -2 -20 -7 -20 -10 0 -20 26 -13
34 12 11 19 6 20 -14z m-34 -9 c-2 -6 3 -12 10 -12 6 -1 19 -3 27 -4 8 -1 23
-3 33 -4 21 -1 23 -21 2 -21 -8 0 -15 5 -15 12 0 6 -7 3 -15 -8 -14 -19 -15
-18 -35 6 -11 14 -20 21 -20 15 0 -5 -4 -3 -9 5 -6 8 -7 18 -4 23 7 11 29 2
26 -12z m-323 -43 c0 -4 -4 -8 -10 -8 -5 0 -10 5 -10 10 0 6 -10 4 -23 -5 -23
-15 -24 -14 -24 14 l0 29 34 -16 c18 -9 33 -19 33 -24z m560 38 c0 -3 -4 -8
-10 -11 -5 -3 -10 -1 -10 4 0 6 5 11 10 11 6 0 10 -2 10 -4z m-673 -37 c1 -11
-2 -17 -7 -14 -5 3 -17 -3 -27 -15 -10 -11 -21 -20 -26 -20 -5 0 -4 6 2 13 6
8 8 16 5 20 -3 3 -1 14 5 25 13 25 46 19 48 -9z m353 21 c0 -5 -4 -10 -10 -10
-5 0 -10 5 -10 10 0 6 5 10 10 10 6 0 10 -4 10 -10z m-160 -15 c6 -8 8 -20 4
-26 -5 -9 -11 -7 -21 6 -23 33 -9 51 17 20z m355 -23 c14 8 21 7 32 -7 7 -10
10 -21 7 -24 -3 -3 -12 3 -20 13 -12 17 -14 18 -14 3 0 -9 -5 -17 -11 -17 -5
0 -7 5 -3 12 4 7 3 8 -4 4 -6 -4 -22 -2 -34 4 -22 11 -22 10 -4 -4 11 -9 14
-16 8 -16 -7 0 -12 -5 -12 -11 0 -5 5 -7 10 -4 6 3 10 2 10 -3 0 -13 -29 -24
-41 -16 -6 4 -6 11 1 19 15 18 4 36 -15 28 -8 -3 -15 0 -15 6 0 6 9 11 20 11
11 0 20 5 20 11 0 7 8 6 23 -4 17 -11 28 -12 42 -5z m-510 -3 c4 -6 -7 -24
-24 -41 -17 -17 -29 -33 -26 -36 2 -3 13 6 24 19 11 13 20 20 20 14 0 -5 -9
-21 -20 -34 -16 -19 -22 -22 -28 -12 -12 19 -8 86 6 86 6 0 15 3 19 8 10 10
22 9 29 -4z m88 -6 c-3 -7 -10 -10 -16 -6 -6 3 -7 1 -3 -5 4 -7 3 -12 -3 -12
-5 0 -15 8 -20 18 -10 16 -10 16 -11 0 0 -10 -4 -18 -10 -18 -14 0 -12 28 3
33 28 9 65 4 60 -10z m36 -44 c-5 -10 -6 -25 -3 -33 3 -9 1 -16 -5 -16 -6 0
-10 3 -9 8 2 4 -5 17 -14 30 -11 17 -17 20 -21 10 -5 -11 -7 -11 -15 0 -7 11
-10 11 -15 -2 -8 -21 -24 -20 -36 2 -9 16 -4 18 59 18 61 0 67 -2 59 -17z
m428 7 c3 -3 3 -9 -1 -13 -4 -4 -11 -2 -15 5 -6 10 -12 4 -21 -17 -12 -30 -30
-42 -30 -21 0 6 5 10 11 10 5 0 7 5 3 11 -5 8 -10 6 -18 -7 -6 -11 -20 -20
-31 -22 -17 -2 -15 1 9 22 16 13 26 28 22 34 -7 11 60 10 71 -2z m-132 -45 c7
-12 -12 -24 -25 -16 -11 7 -4 25 10 25 5 0 11 -4 15 -9z m-510 -41 c3 -5 1
-10 -4 -10 -6 0 -11 5 -11 10 0 6 2 10 4 10 3 0 8 -4 11 -10z m80 0 c3 -5 1
-10 -4 -10 -6 0 -11 5 -11 10 0 6 2 10 4 10 3 0 8 -4 11 -10z m80 0 c3 -5 1
-10 -4 -10 -6 0 -11 5 -11 10 0 6 2 10 4 10 3 0 8 -4 11 -10z"/>
<path d="M6750 2271 c0 -5 5 -13 10 -16 6 -3 10 -2 10 4 0 5 -4 13 -10 16 -5
3 -10 2 -10 -4z"/>
<path d="M2341 2036 c-9 -11 -8 -15 5 -20 9 -4 19 -4 22 -1 3 3 0 5 -7 5 -8 0
-11 7 -7 15 7 19 2 19 -13 1z"/>
<path d="M2592 2068 c-1 -7 -3 -31 -6 -54 -5 -45 7 -77 17 -49 4 10 3 14 -4
10 -13 -9 -8 27 6 38 6 6 5 10 -3 14 -10 4 -10 8 -1 19 8 10 9 18 2 25 -6 6
-10 5 -11 -3z"/>
<path d="M2330 1906 c7 -7 13 -7 20 0 6 6 3 10 -10 10 -13 0 -16 -4 -10 -10z"/>
<path d="M2446 1762 c-2 -4 4 -9 15 -9 11 -1 17 2 14 8 -7 11 -22 12 -29 1z"/>
<path d="M2395 1629 c-6 -8 -4 -10 5 -4 8 5 11 3 8 -6 -3 -8 -11 -13 -17 -11
-7 1 -9 -3 -6 -9 5 -8 12 -6 23 5 12 11 13 19 5 27 -8 8 -13 7 -18 -2z"/>
<path d="M2226 1678 c3 -5 10 -6 15 -3 13 9 11 12 -6 12 -8 0 -12 -4 -9 -9z"/>
<path d="M2035 1641 c-3 -5 -2 -12 3 -15 5 -3 9 1 9 9 0 17 -3 19 -12 6z"/>
<path d="M2426 1571 c-4 -6 -3 -18 2 -27 8 -15 10 -14 16 2 8 20 -8 42 -18 25z"/>
<path d="M2525 1570 c-11 -17 4 -28 37 -26 28 1 55 26 28 26 -6 0 -8 -4 -5
-10 9 -15 -4 -12 -21 5 -18 17 -30 19 -39 5z m25 -10 c0 -5 -4 -10 -10 -10 -5
0 -10 5 -10 10 0 6 5 10 10 10 6 0 10 -4 10 -10z"/>
<path d="M2460 1560 c0 -5 5 -10 10 -10 6 0 10 5 10 10 0 6 -4 10 -10 10 -5 0
-10 -4 -10 -10z"/>
<path d="M1916 1518 c3 -4 9 -8 15 -8 5 0 9 4 9 8 0 5 -7 9 -15 9 -8 0 -12 -4
-9 -9z"/>
<path d="M1706 1402 c-3 -6 -1 -14 5 -17 15 -10 25 3 12 16 -7 7 -13 7 -17 1z"/>
<path d="M2580 1400 c0 -5 5 -10 10 -10 6 0 10 5 10 10 0 6 -4 10 -10 10 -5 0
-10 -4 -10 -10z"/>
<path d="M1860 1461 c0 -7 -4 -10 -8 -7 -11 7 -9 -24 4 -46 8 -15 10 -14 20 6
8 18 8 28 -3 42 -7 10 -13 12 -13 5z m15 -32 c-10 -15 -25 -10 -19 6 4 8 10
12 15 9 5 -3 7 -10 4 -15z"/>
<path d="M2225 1441 c-3 -6 -1 -10 6 -9 6 2 14 -3 17 -11 3 -9 0 -11 -8 -6 -9
6 -11 4 -5 -4 5 -9 10 -10 18 -2 8 8 7 16 -5 27 -11 11 -18 13 -23 5z"/>
<path d="M2321 1433 c7 -12 15 -20 18 -17 3 2 -3 12 -13 22 -17 16 -18 16 -5
-5z"/>
<path d="M1966 1424 c-11 -7 -16 -17 -13 -21 4 -3 7 -3 7 2 0 4 8 1 18 -6 15
-13 16 -12 3 4 -15 20 -2 23 19 5 12 -11 12 -10 0 7 -8 11 -14 21 -15 22 0 1
-9 -5 -19 -13z"/>
<path d="M4790 510 c0 -5 5 -10 10 -10 6 0 10 5 10 10 0 6 -4 10 -10 10 -5 0
-10 -4 -10 -10z"/>
<path d="M4841 446 c-8 -10 -9 -16 -1 -21 10 -6 14 1 11 19 -1 5 5 6 14 2 9
-3 13 -2 10 4 -9 14 -21 12 -34 -4z"/>
<path d="M5155 441 c-3 -5 -2 -12 3 -15 5 -3 9 1 9 9 0 17 -3 19 -12 6z"/>
<path d="M4642 274 c17 -17 38 -12 38 9 0 7 -4 6 -11 -3 -8 -11 -12 -12 -16
-2 -2 6 -10 12 -16 12 -6 0 -4 -7 5 -16z"/>
<path d="M4729 288 c-5 -16 -4 -46 2 -42 4 2 7 13 6 24 -1 17 -5 26 -8 18z"/>
<path d="M4417 236 c-4 -10 -1 -13 8 -9 8 3 12 9 9 14 -7 12 -11 11 -17 -5z"/>
<path d="M4475 199 c-4 -6 -14 -8 -24 -4 -13 5 -14 4 -3 -6 10 -11 15 -10 29
4 10 9 14 17 11 17 -4 0 -10 -5 -13 -11z"/>
<path d="M6905 2404 c-9 -14 -15 -27 -13 -30 2 -2 12 10 22 26 21 37 15 40 -9
4z"/>
<path d="M2471 1356 c-10 -11 -9 -14 1 -12 14 2 23 15 15 22 -2 2 -10 -2 -16
-10z"/>
<path d="M4390 150 c0 -5 5 -10 10 -10 6 0 10 5 10 10 0 6 -4 10 -10 10 -5 0
-10 -4 -10 -10z"/>
<path d="M4286 102 c-2 -4 -1 -14 4 -22 7 -11 9 -9 7 8 -1 24 -3 26 -11 14z"/>
<path d="M4918 72 c-3 -11 0 -19 7 -19 7 0 10 8 7 19 -2 10 -6 18 -7 18 -1 0
-5 -8 -7 -18z"/>
</g>
</svg>
